<mxfile host="app.diagrams.net" modified="2024-07-31T02:31:32.128Z" agent="Mozilla/5.0 (Windows NT 10.0; Win64; x64) AppleWebKit/537.36 (KHTML, like Gecko) Chrome/126.0.0.0 Safari/537.36" etag="kXJd2QnHGeAes3-xf_pY" version="24.2.5" type="github">
  <diagram name="第 1 页" id="NUGVJZRV7W_oCFsXuH_h">
    <mxGraphModel dx="794" dy="1547" grid="1" gridSize="10" guides="1" tooltips="1" connect="1" arrows="1" fold="1" page="1" pageScale="1" pageWidth="827" pageHeight="1169" math="0" shadow="0">
      <root>
        <mxCell id="0" />
        <mxCell id="1" parent="0" />
        <mxCell id="wgNwxTBNjsCODv4MjDBR-7" style="edgeStyle=orthogonalEdgeStyle;rounded=0;orthogonalLoop=1;jettySize=auto;html=1;entryX=0;entryY=0.5;entryDx=0;entryDy=0;" edge="1" parent="1" source="wgNwxTBNjsCODv4MjDBR-1" target="wgNwxTBNjsCODv4MjDBR-4">
          <mxGeometry relative="1" as="geometry" />
        </mxCell>
        <mxCell id="wgNwxTBNjsCODv4MjDBR-8" style="edgeStyle=orthogonalEdgeStyle;rounded=0;orthogonalLoop=1;jettySize=auto;html=1;" edge="1" parent="1" source="wgNwxTBNjsCODv4MjDBR-1" target="wgNwxTBNjsCODv4MjDBR-5">
          <mxGeometry relative="1" as="geometry" />
        </mxCell>
        <mxCell id="wgNwxTBNjsCODv4MjDBR-9" style="edgeStyle=orthogonalEdgeStyle;rounded=0;orthogonalLoop=1;jettySize=auto;html=1;entryX=0;entryY=0.5;entryDx=0;entryDy=0;" edge="1" parent="1" source="wgNwxTBNjsCODv4MjDBR-1" target="wgNwxTBNjsCODv4MjDBR-6">
          <mxGeometry relative="1" as="geometry" />
        </mxCell>
        <mxCell id="wgNwxTBNjsCODv4MjDBR-1" value="大数据平台架构" style="rounded=1;whiteSpace=wrap;html=1;fillColor=#fff2cc;strokeColor=#d6b656;" vertex="1" parent="1">
          <mxGeometry x="140" y="185" width="120" height="60" as="geometry" />
        </mxCell>
        <mxCell id="wgNwxTBNjsCODv4MjDBR-12" style="edgeStyle=orthogonalEdgeStyle;rounded=0;orthogonalLoop=1;jettySize=auto;html=1;entryX=0;entryY=0.5;entryDx=0;entryDy=0;" edge="1" parent="1" source="wgNwxTBNjsCODv4MjDBR-4" target="wgNwxTBNjsCODv4MjDBR-10">
          <mxGeometry relative="1" as="geometry" />
        </mxCell>
        <mxCell id="wgNwxTBNjsCODv4MjDBR-4" value="&lt;span style=&quot;font-family: &amp;quot;PingFang SC&amp;quot;, &amp;quot;Microsoft YaHei&amp;quot;, &amp;quot;Helvetica Neue&amp;quot;, Helvetica, Arial, sans-serif; font-size: 14px; text-align: left;&quot;&gt;Lambda架构&lt;/span&gt;" style="rounded=1;whiteSpace=wrap;html=1;fillColor=#ffe6cc;strokeColor=#d79b00;" vertex="1" parent="1">
          <mxGeometry x="360" y="20" width="120" height="60" as="geometry" />
        </mxCell>
        <mxCell id="wgNwxTBNjsCODv4MjDBR-5" value="&lt;span style=&quot;font-family: &amp;quot;PingFang SC&amp;quot;, &amp;quot;Microsoft YaHei&amp;quot;, &amp;quot;Helvetica Neue&amp;quot;, Helvetica, Arial, sans-serif; font-size: 14px; text-align: left;&quot;&gt;Kappa架构&lt;/span&gt;" style="rounded=1;whiteSpace=wrap;html=1;fillColor=#dae8fc;strokeColor=#6c8ebf;" vertex="1" parent="1">
          <mxGeometry x="360" y="185" width="120" height="60" as="geometry" />
        </mxCell>
        <mxCell id="wgNwxTBNjsCODv4MjDBR-6" value="&lt;span style=&quot;font-family: &amp;quot;PingFang SC&amp;quot;, &amp;quot;Microsoft YaHei&amp;quot;, &amp;quot;Helvetica Neue&amp;quot;, Helvetica, Arial, sans-serif; font-size: 14px; text-align: left;&quot;&gt;SMACK架构&lt;/span&gt;" style="rounded=1;whiteSpace=wrap;html=1;fillColor=#d5e8d4;strokeColor=#82b366;" vertex="1" parent="1">
          <mxGeometry x="360" y="350" width="120" height="60" as="geometry" />
        </mxCell>
        <mxCell id="wgNwxTBNjsCODv4MjDBR-10" value="&lt;span style=&quot;color: rgb(0, 0, 0); font-family: &amp;quot;PingFang SC&amp;quot;, &amp;quot;Microsoft YaHei&amp;quot;, &amp;quot;Helvetica Neue&amp;quot;, Helvetica, Arial, sans-serif; font-size: 14px; font-variant-ligatures: normal; font-variant-caps: normal; letter-spacing: normal; orphans: 2; text-align: left; text-indent: 0px; text-transform: none; widows: 2; word-spacing: 0px; -webkit-text-stroke-width: 0px; white-space: normal; text-decoration-thickness: initial; text-decoration-style: initial; text-decoration-color: initial; float: none; display: inline !important; font-weight: 400;&quot;&gt;&lt;i&gt;是大数据平台里最成熟、最稳定的架构，它的核心思想是：将批处理作业和实时流处理作业分离，各自独立运行，资源互相隔离&lt;/i&gt;&lt;/span&gt;" style="text;whiteSpace=wrap;html=1;fillColor=#ffe6cc;strokeColor=#d79b00;" vertex="1" parent="1">
          <mxGeometry x="560" y="-80" width="420" height="50" as="geometry" />
        </mxCell>
      </root>
    </mxGraphModel>
  </diagram>
</mxfile>
